<?xml version="1.0" encoding="UTF-8" standalone="no"?>
<!DOCTYPE svg PUBLIC "-//W3C//DTD SVG 1.1//EN" "http://www.w3.org/Graphics/SVG/1.1/DTD/svg11.dtd">
<svg width="100%" height="100%" viewBox="0 0 360 144" version="1.1" xmlns="http://www.w3.org/2000/svg" xmlns:xlink="http://www.w3.org/1999/xlink" xml:space="preserve" xmlns:serif="http://www.serif.com/" style="fill-rule:evenodd;clip-rule:evenodd;stroke-linejoin:round;stroke-miterlimit:2;">
    <g transform="matrix(0.368267,0,0,0.368267,-11.2735,1.42109e-14)">
        <g transform="matrix(408.163,0,0,408.163,0,300)">
            <path d="M0.075,-0L0.075,-0.08L0.212,-0.08L0.212,-0.655L0.089,-0.655L0.089,-0.735L0.302,-0.735L0.302,-0.08L0.425,-0.08L0.425,-0L0.075,-0Z" style="fill:rgb(238,38,119);fill-rule:nonzero;"/>
        </g>
        <g transform="matrix(408.163,0,0,408.163,204.082,300)">
            <path d="M0.25,0.008C0.232,0.008 0.214,0.006 0.196,0.003C0.178,-0 0.161,-0.007 0.146,-0.016C0.13,-0.025 0.116,-0.036 0.104,-0.05C0.091,-0.063 0.081,-0.078 0.074,-0.095C0.067,-0.111 0.062,-0.128 0.059,-0.146C0.056,-0.164 0.054,-0.182 0.054,-0.2L0.054,-0.32C0.054,-0.338 0.056,-0.356 0.059,-0.374C0.062,-0.392 0.067,-0.409 0.074,-0.426C0.081,-0.442 0.091,-0.457 0.104,-0.471C0.116,-0.484 0.13,-0.496 0.146,-0.505C0.161,-0.514 0.178,-0.52 0.196,-0.523C0.214,-0.526 0.232,-0.528 0.25,-0.528C0.268,-0.528 0.286,-0.526 0.304,-0.523C0.322,-0.52 0.339,-0.514 0.355,-0.505C0.37,-0.496 0.384,-0.484 0.397,-0.471C0.409,-0.457 0.419,-0.442 0.426,-0.426C0.433,-0.409 0.439,-0.392 0.442,-0.374C0.444,-0.356 0.446,-0.338 0.446,-0.32L0.446,-0.2C0.446,-0.182 0.444,-0.164 0.442,-0.146C0.439,-0.128 0.433,-0.111 0.426,-0.095C0.419,-0.078 0.409,-0.063 0.397,-0.05C0.384,-0.036 0.37,-0.025 0.355,-0.016C0.339,-0.007 0.322,-0 0.304,0.003C0.286,0.006 0.268,0.008 0.25,0.008ZM0.25,-0.072C0.266,-0.072 0.281,-0.075 0.296,-0.082C0.311,-0.088 0.323,-0.097 0.332,-0.111C0.341,-0.124 0.348,-0.138 0.351,-0.153C0.354,-0.168 0.356,-0.184 0.356,-0.2L0.356,-0.32C0.356,-0.336 0.354,-0.352 0.351,-0.367C0.348,-0.382 0.341,-0.397 0.332,-0.41C0.323,-0.423 0.311,-0.432 0.296,-0.439C0.281,-0.445 0.266,-0.448 0.25,-0.448C0.234,-0.448 0.219,-0.445 0.204,-0.439C0.189,-0.432 0.177,-0.423 0.168,-0.41C0.159,-0.397 0.152,-0.382 0.149,-0.367C0.146,-0.352 0.144,-0.336 0.144,-0.32L0.144,-0.2C0.144,-0.184 0.146,-0.168 0.149,-0.153C0.152,-0.138 0.159,-0.124 0.168,-0.111C0.177,-0.097 0.189,-0.088 0.204,-0.082C0.219,-0.075 0.234,-0.072 0.25,-0.072Z" style="fill:rgb(238,38,119);fill-rule:nonzero;"/>
        </g>
        <g transform="matrix(408.163,0,0,408.163,408.163,300)">
            <path d="M0.247,0.223C0.232,0.223 0.216,0.222 0.201,0.22C0.186,0.217 0.171,0.213 0.157,0.207C0.142,0.201 0.129,0.193 0.117,0.183C0.105,0.173 0.095,0.162 0.087,0.149C0.078,0.135 0.072,0.122 0.068,0.107C0.063,0.092 0.061,0.077 0.06,0.062L0.15,0.062C0.151,0.073 0.154,0.085 0.159,0.096C0.164,0.107 0.171,0.116 0.18,0.123C0.189,0.13 0.2,0.136 0.212,0.139C0.223,0.142 0.235,0.143 0.247,0.143C0.257,0.143 0.267,0.142 0.277,0.139C0.287,0.136 0.296,0.132 0.305,0.126C0.313,0.119 0.32,0.112 0.326,0.103C0.331,0.094 0.336,0.085 0.339,0.076C0.342,0.066 0.345,0.056 0.346,0.046C0.347,0.035 0.348,0.025 0.348,0.015L0.348,-0.088C0.343,-0.074 0.336,-0.061 0.327,-0.049C0.318,-0.036 0.308,-0.026 0.297,-0.017C0.285,-0.008 0.272,-0.002 0.257,0.002C0.242,0.006 0.228,0.008 0.213,0.008C0.196,0.008 0.18,0.006 0.164,0.001C0.148,-0.004 0.134,-0.011 0.121,-0.022C0.108,-0.032 0.097,-0.044 0.088,-0.058C0.079,-0.072 0.073,-0.087 0.068,-0.103C0.063,-0.118 0.059,-0.134 0.057,-0.151C0.055,-0.167 0.054,-0.183 0.054,-0.2L0.054,-0.32C0.054,-0.337 0.055,-0.353 0.057,-0.37C0.059,-0.386 0.063,-0.402 0.068,-0.418C0.073,-0.433 0.079,-0.448 0.088,-0.462C0.097,-0.476 0.108,-0.488 0.121,-0.499C0.134,-0.509 0.148,-0.516 0.164,-0.521C0.18,-0.526 0.196,-0.528 0.213,-0.528C0.228,-0.528 0.242,-0.526 0.257,-0.522C0.272,-0.518 0.285,-0.512 0.297,-0.503C0.308,-0.494 0.318,-0.484 0.327,-0.472C0.336,-0.459 0.343,-0.446 0.348,-0.432L0.348,-0.52L0.438,-0.52L0.438,0.015C0.438,0.033 0.437,0.051 0.434,0.069C0.431,0.086 0.426,0.103 0.419,0.12C0.412,0.136 0.402,0.151 0.391,0.165C0.379,0.178 0.365,0.19 0.35,0.199C0.335,0.208 0.318,0.214 0.301,0.218C0.283,0.221 0.265,0.223 0.247,0.223ZM0.249,-0.072C0.259,-0.072 0.269,-0.073 0.279,-0.076C0.289,-0.079 0.298,-0.083 0.307,-0.09C0.315,-0.096 0.322,-0.103 0.327,-0.112C0.332,-0.121 0.337,-0.13 0.34,-0.14C0.343,-0.149 0.346,-0.159 0.347,-0.17C0.347,-0.18 0.348,-0.19 0.348,-0.2L0.348,-0.32C0.348,-0.33 0.347,-0.34 0.347,-0.351C0.346,-0.361 0.343,-0.371 0.34,-0.381C0.337,-0.39 0.332,-0.399 0.327,-0.408C0.322,-0.417 0.315,-0.424 0.307,-0.431C0.298,-0.437 0.289,-0.441 0.279,-0.444C0.269,-0.447 0.259,-0.448 0.249,-0.448C0.234,-0.448 0.219,-0.445 0.204,-0.438C0.189,-0.431 0.177,-0.422 0.168,-0.409C0.159,-0.396 0.152,-0.382 0.149,-0.367C0.146,-0.351 0.144,-0.335 0.144,-0.32L0.144,-0.2C0.144,-0.185 0.146,-0.169 0.149,-0.154C0.152,-0.138 0.159,-0.124 0.168,-0.111C0.177,-0.098 0.189,-0.089 0.204,-0.082C0.219,-0.075 0.234,-0.072 0.249,-0.072Z" style="fill:rgb(238,38,119);fill-rule:nonzero;"/>
        </g>
        <g transform="matrix(408.163,0,0,408.163,612.245,300)">
            <path d="M0.247,0.223C0.232,0.223 0.216,0.222 0.201,0.22C0.186,0.217 0.171,0.213 0.157,0.207C0.142,0.201 0.129,0.193 0.117,0.183C0.105,0.173 0.095,0.162 0.087,0.149C0.078,0.135 0.072,0.122 0.068,0.107C0.063,0.092 0.061,0.077 0.06,0.062L0.15,0.062C0.151,0.073 0.154,0.085 0.159,0.096C0.164,0.107 0.171,0.116 0.18,0.123C0.189,0.13 0.2,0.136 0.212,0.139C0.223,0.142 0.235,0.143 0.247,0.143C0.257,0.143 0.267,0.142 0.277,0.139C0.287,0.136 0.296,0.132 0.305,0.126C0.313,0.119 0.32,0.112 0.326,0.103C0.331,0.094 0.336,0.085 0.339,0.076C0.342,0.066 0.345,0.056 0.346,0.046C0.347,0.035 0.348,0.025 0.348,0.015L0.348,-0.088C0.343,-0.074 0.336,-0.061 0.327,-0.049C0.318,-0.036 0.308,-0.026 0.297,-0.017C0.285,-0.008 0.272,-0.002 0.257,0.002C0.242,0.006 0.228,0.008 0.213,0.008C0.196,0.008 0.18,0.006 0.164,0.001C0.148,-0.004 0.134,-0.011 0.121,-0.022C0.108,-0.032 0.097,-0.044 0.088,-0.058C0.079,-0.072 0.073,-0.087 0.068,-0.103C0.063,-0.118 0.059,-0.134 0.057,-0.151C0.055,-0.167 0.054,-0.183 0.054,-0.2L0.054,-0.32C0.054,-0.337 0.055,-0.353 0.057,-0.37C0.059,-0.386 0.063,-0.402 0.068,-0.418C0.073,-0.433 0.079,-0.448 0.088,-0.462C0.097,-0.476 0.108,-0.488 0.121,-0.499C0.134,-0.509 0.148,-0.516 0.164,-0.521C0.18,-0.526 0.196,-0.528 0.213,-0.528C0.228,-0.528 0.242,-0.526 0.257,-0.522C0.272,-0.518 0.285,-0.512 0.297,-0.503C0.308,-0.494 0.318,-0.484 0.327,-0.472C0.336,-0.459 0.343,-0.446 0.348,-0.432L0.348,-0.52L0.438,-0.52L0.438,0.015C0.438,0.033 0.437,0.051 0.434,0.069C0.431,0.086 0.426,0.103 0.419,0.12C0.412,0.136 0.402,0.151 0.391,0.165C0.379,0.178 0.365,0.19 0.35,0.199C0.335,0.208 0.318,0.214 0.301,0.218C0.283,0.221 0.265,0.223 0.247,0.223ZM0.249,-0.072C0.259,-0.072 0.269,-0.073 0.279,-0.076C0.289,-0.079 0.298,-0.083 0.307,-0.09C0.315,-0.096 0.322,-0.103 0.327,-0.112C0.332,-0.121 0.337,-0.13 0.34,-0.14C0.343,-0.149 0.346,-0.159 0.347,-0.17C0.347,-0.18 0.348,-0.19 0.348,-0.2L0.348,-0.32C0.348,-0.33 0.347,-0.34 0.347,-0.351C0.346,-0.361 0.343,-0.371 0.34,-0.381C0.337,-0.39 0.332,-0.399 0.327,-0.408C0.322,-0.417 0.315,-0.424 0.307,-0.431C0.298,-0.437 0.289,-0.441 0.279,-0.444C0.269,-0.447 0.259,-0.448 0.249,-0.448C0.234,-0.448 0.219,-0.445 0.204,-0.438C0.189,-0.431 0.177,-0.422 0.168,-0.409C0.159,-0.396 0.152,-0.382 0.149,-0.367C0.146,-0.351 0.144,-0.335 0.144,-0.32L0.144,-0.2C0.144,-0.185 0.146,-0.169 0.149,-0.154C0.152,-0.138 0.159,-0.124 0.168,-0.111C0.177,-0.098 0.189,-0.089 0.204,-0.082C0.219,-0.075 0.234,-0.072 0.249,-0.072Z" style="fill:rgb(238,38,119);fill-rule:nonzero;"/>
        </g>
        <g transform="matrix(408.163,0,0,408.163,816.327,300)">
            <path d="M0.145,0.215C0.152,0.193 0.158,0.171 0.165,0.15C0.171,0.128 0.177,0.106 0.183,0.084L0.205,0.01L0.05,-0.52L0.143,-0.52L0.251,-0.124L0.357,-0.52L0.45,-0.52L0.269,0.106L0.238,0.215L0.145,0.215Z" style="fill:rgb(238,38,119);fill-rule:nonzero;"/>
        </g>
    </g>
</svg>
