<?xml version="1.0" encoding="UTF-8" standalone="no"?>
<!DOCTYPE svg PUBLIC "-//W3C//DTD SVG 1.1//EN" "http://www.w3.org/Graphics/SVG/1.1/DTD/svg11.dtd">
<svg width="100%" height="100%" viewBox="0 0 1200 300" version="1.1" xmlns="http://www.w3.org/2000/svg" xmlns:xlink="http://www.w3.org/1999/xlink" xml:space="preserve" xmlns:serif="http://www.serif.com/" style="fill-rule:evenodd;clip-rule:evenodd;stroke-linejoin:round;stroke-miterlimit:2;">
    <g transform="matrix(0.702677,0,0,0.702677,19.0727,25.239)">
        <g transform="matrix(408.163,0,0,408.163,0,300)">
            <path d="M0.106,0.143L0.106,-0.823L0.405,-0.823L0.405,-0.709L0.243,-0.709L0.243,0.029L0.405,0.029L0.405,0.143L0.106,0.143Z" style="fill:rgb(34,24,28);fill-rule:nonzero;"/>
        </g>
        <g transform="matrix(408.163,0,0,408.163,204.082,300)">
            <path d="M0.182,-0.294L0.182,-0.735L0.318,-0.735L0.318,-0.294L0.182,-0.294ZM0.25,0.008C0.237,0.008 0.224,0.006 0.211,0.002C0.198,-0.002 0.187,-0.009 0.178,-0.018C0.169,-0.027 0.162,-0.038 0.158,-0.051C0.154,-0.064 0.152,-0.077 0.152,-0.09C0.152,-0.103 0.154,-0.116 0.158,-0.129C0.162,-0.142 0.169,-0.153 0.178,-0.162C0.187,-0.171 0.198,-0.178 0.211,-0.182C0.224,-0.186 0.237,-0.188 0.25,-0.188C0.263,-0.188 0.276,-0.186 0.289,-0.182C0.302,-0.178 0.313,-0.171 0.322,-0.162C0.331,-0.153 0.338,-0.142 0.342,-0.129C0.346,-0.116 0.348,-0.103 0.348,-0.09C0.348,-0.077 0.346,-0.064 0.342,-0.051C0.338,-0.038 0.331,-0.027 0.322,-0.018C0.313,-0.009 0.302,-0.002 0.289,0.002C0.276,0.006 0.263,0.008 0.25,0.008Z" style="fill:rgb(238,38,119);fill-rule:nonzero;"/>
        </g>
        <g transform="matrix(408.163,0,0,408.163,408.163,300)">
            <path d="M0.095,0.143L0.095,0.029L0.257,0.029L0.257,-0.709L0.095,-0.709L0.095,-0.823L0.394,-0.823L0.394,0.143L0.095,0.143Z" style="fill:rgb(34,24,28);fill-rule:nonzero;"/>
        </g>
        <g transform="matrix(408.163,0,0,408.163,612.245,300)">
            <path d="M0.075,-0L0.075,-0.037L0.237,-0.037L0.237,-0.698L0.089,-0.698L0.089,-0.735L0.277,-0.735L0.277,-0.037L0.425,-0.037L0.425,-0L0.075,-0Z" style="fill:rgb(34,24,28);fill-rule:nonzero;"/>
        </g>
        <g transform="matrix(408.163,0,0,408.163,816.327,300)">
            <path d="M0.25,0.008C0.232,0.008 0.214,0.006 0.197,0.003C0.18,-0.001 0.163,-0.008 0.148,-0.017C0.133,-0.025 0.119,-0.037 0.108,-0.051C0.096,-0.064 0.087,-0.079 0.08,-0.096C0.073,-0.112 0.068,-0.129 0.065,-0.147C0.062,-0.164 0.061,-0.182 0.061,-0.2L0.061,-0.32C0.061,-0.338 0.062,-0.356 0.065,-0.374C0.068,-0.391 0.073,-0.408 0.08,-0.425C0.087,-0.441 0.096,-0.456 0.108,-0.47C0.119,-0.483 0.133,-0.495 0.148,-0.504C0.163,-0.513 0.18,-0.519 0.197,-0.523C0.214,-0.526 0.232,-0.528 0.25,-0.528C0.268,-0.528 0.286,-0.526 0.303,-0.523C0.32,-0.519 0.337,-0.513 0.352,-0.504C0.367,-0.495 0.381,-0.483 0.393,-0.47C0.404,-0.456 0.413,-0.441 0.421,-0.425C0.428,-0.408 0.432,-0.391 0.435,-0.374C0.438,-0.356 0.439,-0.338 0.439,-0.32L0.439,-0.2C0.439,-0.182 0.438,-0.164 0.435,-0.147C0.432,-0.129 0.428,-0.112 0.421,-0.096C0.413,-0.079 0.404,-0.064 0.393,-0.051C0.381,-0.037 0.367,-0.025 0.352,-0.017C0.337,-0.008 0.32,-0.001 0.303,0.003C0.286,0.006 0.268,0.008 0.25,0.008ZM0.25,-0.029C0.265,-0.029 0.279,-0.031 0.293,-0.034C0.307,-0.037 0.32,-0.042 0.332,-0.05C0.344,-0.057 0.355,-0.067 0.364,-0.079C0.373,-0.09 0.38,-0.103 0.385,-0.116C0.39,-0.129 0.394,-0.143 0.396,-0.157C0.398,-0.171 0.399,-0.185 0.399,-0.2L0.399,-0.32C0.399,-0.335 0.398,-0.349 0.396,-0.363C0.394,-0.377 0.39,-0.391 0.385,-0.404C0.38,-0.417 0.373,-0.43 0.364,-0.442C0.355,-0.453 0.344,-0.463 0.332,-0.471C0.32,-0.478 0.307,-0.484 0.293,-0.487C0.279,-0.49 0.265,-0.491 0.25,-0.491C0.235,-0.491 0.221,-0.49 0.207,-0.487C0.193,-0.484 0.18,-0.478 0.168,-0.471C0.156,-0.463 0.146,-0.453 0.137,-0.442C0.128,-0.43 0.12,-0.417 0.115,-0.404C0.11,-0.391 0.106,-0.377 0.104,-0.363C0.102,-0.349 0.101,-0.335 0.101,-0.32L0.101,-0.2C0.101,-0.185 0.102,-0.171 0.104,-0.157C0.106,-0.143 0.11,-0.129 0.115,-0.116C0.12,-0.103 0.128,-0.09 0.137,-0.079C0.146,-0.067 0.156,-0.057 0.168,-0.05C0.18,-0.042 0.193,-0.037 0.207,-0.034C0.221,-0.031 0.235,-0.029 0.25,-0.029Z" style="fill:rgb(34,24,28);fill-rule:nonzero;"/>
        </g>
        <g transform="matrix(408.163,0,0,408.163,1020.41,300)">
            <path d="M0.247,0.223C0.226,0.223 0.204,0.221 0.183,0.216C0.162,0.211 0.142,0.202 0.125,0.189C0.108,0.176 0.094,0.16 0.084,0.141C0.074,0.121 0.068,0.1 0.067,0.079L0.107,0.079C0.108,0.096 0.112,0.111 0.121,0.126C0.129,0.141 0.14,0.153 0.153,0.162C0.166,0.171 0.181,0.178 0.198,0.181C0.214,0.184 0.23,0.186 0.247,0.186C0.261,0.186 0.275,0.184 0.289,0.181C0.303,0.178 0.316,0.172 0.328,0.165C0.339,0.157 0.349,0.147 0.358,0.136C0.366,0.124 0.373,0.111 0.378,0.098C0.383,0.085 0.386,0.071 0.388,0.057C0.39,0.043 0.391,0.029 0.391,0.015L0.391,-0.102C0.385,-0.086 0.377,-0.071 0.368,-0.057C0.358,-0.042 0.346,-0.03 0.333,-0.02C0.319,-0.01 0.304,-0.003 0.287,0.002C0.27,0.006 0.253,0.008 0.236,0.008C0.219,0.008 0.202,0.006 0.186,0.002C0.169,-0.002 0.153,-0.009 0.139,-0.019C0.124,-0.028 0.112,-0.04 0.102,-0.054C0.091,-0.068 0.083,-0.083 0.077,-0.099C0.071,-0.115 0.067,-0.131 0.065,-0.149C0.062,-0.166 0.061,-0.183 0.061,-0.2L0.061,-0.32C0.061,-0.337 0.062,-0.355 0.065,-0.372C0.067,-0.389 0.071,-0.405 0.077,-0.421C0.083,-0.437 0.091,-0.452 0.102,-0.466C0.112,-0.48 0.124,-0.492 0.139,-0.502C0.153,-0.511 0.169,-0.518 0.186,-0.522C0.202,-0.526 0.219,-0.528 0.236,-0.528C0.253,-0.528 0.27,-0.526 0.287,-0.522C0.304,-0.517 0.319,-0.51 0.333,-0.5C0.346,-0.49 0.358,-0.478 0.368,-0.464C0.377,-0.449 0.385,-0.434 0.391,-0.418L0.391,-0.52L0.431,-0.52L0.431,0.015C0.431,0.032 0.43,0.05 0.427,0.068C0.424,0.085 0.42,0.102 0.413,0.118C0.406,0.134 0.398,0.149 0.387,0.163C0.376,0.177 0.363,0.189 0.348,0.198C0.333,0.207 0.316,0.214 0.299,0.218C0.282,0.221 0.264,0.223 0.247,0.223ZM0.249,-0.029C0.263,-0.029 0.277,-0.031 0.291,-0.034C0.305,-0.037 0.318,-0.043 0.329,-0.051C0.34,-0.059 0.35,-0.069 0.359,-0.08C0.367,-0.091 0.374,-0.104 0.379,-0.117C0.384,-0.13 0.387,-0.144 0.389,-0.158C0.39,-0.172 0.391,-0.186 0.391,-0.2L0.391,-0.32C0.391,-0.334 0.39,-0.348 0.389,-0.362C0.387,-0.376 0.384,-0.39 0.379,-0.403C0.374,-0.416 0.367,-0.429 0.359,-0.44C0.35,-0.451 0.34,-0.461 0.329,-0.469C0.318,-0.477 0.305,-0.483 0.291,-0.486C0.277,-0.489 0.263,-0.491 0.249,-0.491C0.235,-0.491 0.221,-0.49 0.207,-0.487C0.192,-0.484 0.179,-0.478 0.167,-0.47C0.155,-0.462 0.145,-0.452 0.136,-0.441C0.127,-0.43 0.12,-0.417 0.115,-0.404C0.11,-0.391 0.106,-0.377 0.104,-0.363C0.102,-0.348 0.101,-0.334 0.101,-0.32L0.101,-0.2C0.101,-0.186 0.102,-0.172 0.104,-0.158C0.106,-0.143 0.11,-0.129 0.115,-0.116C0.12,-0.103 0.127,-0.09 0.136,-0.079C0.145,-0.068 0.155,-0.058 0.167,-0.05C0.179,-0.042 0.192,-0.037 0.207,-0.034C0.221,-0.031 0.235,-0.029 0.249,-0.029Z" style="fill:rgb(34,24,28);fill-rule:nonzero;"/>
        </g>
        <g transform="matrix(408.163,0,0,408.163,1224.49,300)">
            <path d="M0.247,0.223C0.226,0.223 0.204,0.221 0.183,0.216C0.162,0.211 0.142,0.202 0.125,0.189C0.108,0.176 0.094,0.16 0.084,0.141C0.074,0.121 0.068,0.1 0.067,0.079L0.107,0.079C0.108,0.096 0.112,0.111 0.121,0.126C0.129,0.141 0.14,0.153 0.153,0.162C0.166,0.171 0.181,0.178 0.198,0.181C0.214,0.184 0.23,0.186 0.247,0.186C0.261,0.186 0.275,0.184 0.289,0.181C0.303,0.178 0.316,0.172 0.328,0.165C0.339,0.157 0.349,0.147 0.358,0.136C0.366,0.124 0.373,0.111 0.378,0.098C0.383,0.085 0.386,0.071 0.388,0.057C0.39,0.043 0.391,0.029 0.391,0.015L0.391,-0.102C0.385,-0.086 0.377,-0.071 0.368,-0.057C0.358,-0.042 0.346,-0.03 0.333,-0.02C0.319,-0.01 0.304,-0.003 0.287,0.002C0.27,0.006 0.253,0.008 0.236,0.008C0.219,0.008 0.202,0.006 0.186,0.002C0.169,-0.002 0.153,-0.009 0.139,-0.019C0.124,-0.028 0.112,-0.04 0.102,-0.054C0.091,-0.068 0.083,-0.083 0.077,-0.099C0.071,-0.115 0.067,-0.131 0.065,-0.149C0.062,-0.166 0.061,-0.183 0.061,-0.2L0.061,-0.32C0.061,-0.337 0.062,-0.355 0.065,-0.372C0.067,-0.389 0.071,-0.405 0.077,-0.421C0.083,-0.437 0.091,-0.452 0.102,-0.466C0.112,-0.48 0.124,-0.492 0.139,-0.502C0.153,-0.511 0.169,-0.518 0.186,-0.522C0.202,-0.526 0.219,-0.528 0.236,-0.528C0.253,-0.528 0.27,-0.526 0.287,-0.522C0.304,-0.517 0.319,-0.51 0.333,-0.5C0.346,-0.49 0.358,-0.478 0.368,-0.464C0.377,-0.449 0.385,-0.434 0.391,-0.418L0.391,-0.52L0.431,-0.52L0.431,0.015C0.431,0.032 0.43,0.05 0.427,0.068C0.424,0.085 0.42,0.102 0.413,0.118C0.406,0.134 0.398,0.149 0.387,0.163C0.376,0.177 0.363,0.189 0.348,0.198C0.333,0.207 0.316,0.214 0.299,0.218C0.282,0.221 0.264,0.223 0.247,0.223ZM0.249,-0.029C0.263,-0.029 0.277,-0.031 0.291,-0.034C0.305,-0.037 0.318,-0.043 0.329,-0.051C0.34,-0.059 0.35,-0.069 0.359,-0.08C0.367,-0.091 0.374,-0.104 0.379,-0.117C0.384,-0.13 0.387,-0.144 0.389,-0.158C0.39,-0.172 0.391,-0.186 0.391,-0.2L0.391,-0.32C0.391,-0.334 0.39,-0.348 0.389,-0.362C0.387,-0.376 0.384,-0.39 0.379,-0.403C0.374,-0.416 0.367,-0.429 0.359,-0.44C0.35,-0.451 0.34,-0.461 0.329,-0.469C0.318,-0.477 0.305,-0.483 0.291,-0.486C0.277,-0.489 0.263,-0.491 0.249,-0.491C0.235,-0.491 0.221,-0.49 0.207,-0.487C0.192,-0.484 0.179,-0.478 0.167,-0.47C0.155,-0.462 0.145,-0.452 0.136,-0.441C0.127,-0.43 0.12,-0.417 0.115,-0.404C0.11,-0.391 0.106,-0.377 0.104,-0.363C0.102,-0.348 0.101,-0.334 0.101,-0.32L0.101,-0.2C0.101,-0.186 0.102,-0.172 0.104,-0.158C0.106,-0.143 0.11,-0.129 0.115,-0.116C0.12,-0.103 0.127,-0.09 0.136,-0.079C0.145,-0.068 0.155,-0.058 0.167,-0.05C0.179,-0.042 0.192,-0.037 0.207,-0.034C0.221,-0.031 0.235,-0.029 0.249,-0.029Z" style="fill:rgb(34,24,28);fill-rule:nonzero;"/>
        </g>
        <g transform="matrix(408.163,0,0,408.163,1428.57,300)">
            <path d="M0.171,0.215C0.176,0.2 0.194,0.141 0.199,0.126L0.229,0.034L0.055,-0.52L0.097,-0.52L0.249,-0.029L0.403,-0.52L0.445,-0.52L0.213,0.215L0.171,0.215Z" style="fill:rgb(34,24,28);fill-rule:nonzero;"/>
        </g>
    </g>
</svg>
