<?xml version="1.0" encoding="UTF-8" standalone="no"?>
<!DOCTYPE svg PUBLIC "-//W3C//DTD SVG 1.1//EN" "http://www.w3.org/Graphics/SVG/1.1/DTD/svg11.dtd">
<svg width="100%" height="100%" viewBox="0 0 1200 300" version="1.1" xmlns="http://www.w3.org/2000/svg" xmlns:xlink="http://www.w3.org/1999/xlink" xml:space="preserve" xmlns:serif="http://www.serif.com/" style="fill-rule:evenodd;clip-rule:evenodd;stroke-linejoin:round;stroke-miterlimit:2;">
    <g transform="matrix(1.29986,0,0,1.29986,41.0683,-11.9013)">
        <g transform="matrix(220.644,0,0,220.644,-18.0247,190.746)">
            <path d="M0.106,0.143L0.106,-0.823L0.405,-0.823L0.405,-0.709L0.243,-0.709L0.243,0.029L0.405,0.029L0.405,0.143L0.106,0.143Z" style="fill:rgb(235,179,169);fill-rule:nonzero;"/>
        </g>
        <g transform="matrix(220.644,0,0,220.644,92.2972,190.746)">
            <path d="M0.182,-0.294L0.182,-0.735L0.318,-0.735L0.318,-0.294L0.182,-0.294ZM0.25,0.008C0.237,0.008 0.224,0.006 0.211,0.002C0.198,-0.002 0.187,-0.009 0.178,-0.018C0.169,-0.027 0.162,-0.038 0.158,-0.051C0.154,-0.064 0.152,-0.077 0.152,-0.09C0.152,-0.103 0.154,-0.116 0.158,-0.129C0.162,-0.142 0.169,-0.153 0.178,-0.162C0.187,-0.171 0.198,-0.178 0.211,-0.182C0.224,-0.186 0.237,-0.188 0.25,-0.188C0.263,-0.188 0.276,-0.186 0.289,-0.182C0.302,-0.178 0.313,-0.171 0.322,-0.162C0.331,-0.153 0.338,-0.142 0.342,-0.129C0.346,-0.116 0.348,-0.103 0.348,-0.09C0.348,-0.077 0.346,-0.064 0.342,-0.051C0.338,-0.038 0.331,-0.027 0.322,-0.018C0.313,-0.009 0.302,-0.002 0.289,0.002C0.276,0.006 0.263,0.008 0.25,0.008Z" style="fill:rgb(238,38,119);fill-rule:nonzero;"/>
        </g>
        <g transform="matrix(220.644,0,0,220.644,202.619,190.746)">
            <path d="M0.095,0.143L0.095,0.029L0.257,0.029L0.257,-0.709L0.095,-0.709L0.095,-0.823L0.394,-0.823L0.394,0.143L0.095,0.143Z" style="fill:rgb(235,179,169);fill-rule:nonzero;"/>
        </g>
        <g transform="matrix(220.644,0,0,220.644,312.941,190.746)">
            <path d="M0.075,-0L0.075,-0.114L0.189,-0.114L0.189,-0.621L0.089,-0.621L0.089,-0.735L0.325,-0.735L0.325,-0.114L0.425,-0.114L0.425,-0L0.075,-0Z" style="fill:rgb(235,179,169);fill-rule:nonzero;"/>
        </g>
        <g transform="matrix(220.644,0,0,220.644,423.263,190.746)">
            <path d="M0.25,0.008C0.232,0.008 0.214,0.006 0.196,0.003C0.177,-0 0.16,-0.006 0.143,-0.015C0.127,-0.024 0.113,-0.035 0.1,-0.048C0.087,-0.061 0.077,-0.076 0.069,-0.093C0.061,-0.11 0.056,-0.127 0.053,-0.146C0.05,-0.164 0.048,-0.182 0.048,-0.2L0.048,-0.32C0.048,-0.338 0.05,-0.356 0.053,-0.375C0.056,-0.393 0.061,-0.41 0.069,-0.427C0.077,-0.444 0.087,-0.459 0.1,-0.472C0.113,-0.485 0.127,-0.496 0.143,-0.505C0.16,-0.514 0.177,-0.52 0.196,-0.523C0.214,-0.526 0.232,-0.528 0.25,-0.528C0.268,-0.528 0.286,-0.526 0.305,-0.523C0.323,-0.52 0.34,-0.514 0.357,-0.505C0.373,-0.496 0.387,-0.485 0.4,-0.472C0.413,-0.459 0.423,-0.444 0.431,-0.427C0.439,-0.41 0.445,-0.393 0.448,-0.375C0.451,-0.356 0.452,-0.338 0.452,-0.32L0.452,-0.2C0.452,-0.182 0.451,-0.164 0.448,-0.146C0.445,-0.127 0.439,-0.11 0.431,-0.093C0.423,-0.076 0.413,-0.061 0.4,-0.048C0.387,-0.035 0.373,-0.024 0.357,-0.015C0.34,-0.006 0.323,-0 0.305,0.003C0.286,0.006 0.268,0.008 0.25,0.008ZM0.25,-0.106C0.261,-0.106 0.271,-0.109 0.281,-0.115C0.29,-0.12 0.298,-0.128 0.303,-0.138C0.308,-0.147 0.311,-0.157 0.313,-0.168C0.314,-0.179 0.315,-0.189 0.315,-0.2L0.315,-0.32C0.315,-0.331 0.314,-0.341 0.313,-0.352C0.311,-0.363 0.308,-0.373 0.303,-0.383C0.298,-0.392 0.29,-0.4 0.281,-0.406C0.271,-0.411 0.261,-0.414 0.25,-0.414C0.239,-0.414 0.229,-0.411 0.22,-0.406C0.21,-0.4 0.203,-0.392 0.198,-0.383C0.193,-0.373 0.189,-0.363 0.188,-0.352C0.186,-0.341 0.185,-0.331 0.185,-0.32L0.185,-0.2C0.185,-0.189 0.186,-0.179 0.188,-0.168C0.189,-0.157 0.193,-0.147 0.198,-0.138C0.203,-0.128 0.21,-0.12 0.22,-0.115C0.229,-0.109 0.239,-0.106 0.25,-0.106Z" style="fill:rgb(235,179,169);fill-rule:nonzero;"/>
        </g>
        <g transform="matrix(220.644,0,0,220.644,533.585,190.746)">
            <path d="M0.247,0.223C0.23,0.223 0.214,0.222 0.198,0.219C0.182,0.216 0.167,0.212 0.152,0.205C0.137,0.198 0.124,0.189 0.112,0.178C0.099,0.167 0.089,0.155 0.081,0.141C0.072,0.127 0.066,0.112 0.062,0.096C0.057,0.081 0.055,0.065 0.054,0.049L0.191,0.049C0.191,0.056 0.192,0.064 0.195,0.071C0.197,0.079 0.201,0.086 0.205,0.091C0.211,0.097 0.217,0.101 0.224,0.104C0.231,0.107 0.239,0.109 0.247,0.109C0.257,0.109 0.267,0.106 0.276,0.099C0.284,0.093 0.291,0.085 0.296,0.076C0.301,0.067 0.304,0.057 0.305,0.046C0.306,0.036 0.307,0.026 0.307,0.015L0.307,-0.074C0.302,-0.063 0.296,-0.052 0.289,-0.041C0.282,-0.03 0.273,-0.021 0.263,-0.014C0.252,-0.006 0.241,-0 0.229,0.003C0.216,0.006 0.204,0.008 0.191,0.008C0.175,0.008 0.16,0.005 0.145,-0C0.13,-0.005 0.116,-0.014 0.105,-0.025C0.094,-0.035 0.084,-0.048 0.077,-0.062C0.069,-0.076 0.063,-0.091 0.059,-0.106C0.054,-0.121 0.051,-0.137 0.05,-0.153C0.049,-0.168 0.048,-0.184 0.048,-0.2L0.048,-0.32C0.048,-0.336 0.049,-0.352 0.05,-0.368C0.051,-0.383 0.054,-0.399 0.059,-0.414C0.063,-0.429 0.069,-0.444 0.077,-0.458C0.084,-0.472 0.094,-0.485 0.105,-0.496C0.116,-0.506 0.13,-0.515 0.145,-0.52C0.16,-0.525 0.175,-0.528 0.191,-0.528C0.204,-0.528 0.216,-0.526 0.229,-0.523C0.241,-0.52 0.252,-0.514 0.263,-0.506C0.273,-0.499 0.282,-0.49 0.289,-0.479C0.296,-0.468 0.302,-0.457 0.307,-0.446L0.307,-0.52L0.444,-0.52L0.444,0.015C0.444,0.033 0.443,0.051 0.44,0.069C0.437,0.087 0.431,0.104 0.424,0.121C0.417,0.138 0.407,0.153 0.395,0.166C0.382,0.179 0.368,0.19 0.352,0.199C0.336,0.208 0.319,0.215 0.301,0.218C0.283,0.221 0.265,0.223 0.247,0.223ZM0.249,-0.106C0.256,-0.106 0.262,-0.107 0.269,-0.11C0.276,-0.113 0.281,-0.117 0.286,-0.122C0.291,-0.127 0.294,-0.133 0.297,-0.14C0.3,-0.146 0.302,-0.152 0.304,-0.159C0.305,-0.166 0.306,-0.172 0.307,-0.18C0.307,-0.187 0.307,-0.193 0.307,-0.2L0.307,-0.32C0.307,-0.327 0.307,-0.334 0.307,-0.341C0.306,-0.347 0.305,-0.354 0.304,-0.361C0.302,-0.368 0.3,-0.374 0.297,-0.381C0.294,-0.387 0.291,-0.393 0.286,-0.398C0.281,-0.403 0.276,-0.407 0.269,-0.41C0.262,-0.413 0.256,-0.414 0.249,-0.414C0.238,-0.414 0.228,-0.411 0.219,-0.405C0.21,-0.399 0.203,-0.391 0.198,-0.382C0.193,-0.373 0.189,-0.363 0.188,-0.352C0.186,-0.341 0.185,-0.331 0.185,-0.32L0.185,-0.2C0.185,-0.189 0.186,-0.179 0.188,-0.168C0.189,-0.157 0.193,-0.147 0.198,-0.138C0.203,-0.129 0.21,-0.121 0.219,-0.115C0.228,-0.109 0.238,-0.106 0.249,-0.106Z" style="fill:rgb(235,179,169);fill-rule:nonzero;"/>
        </g>
        <g transform="matrix(220.644,0,0,220.644,643.907,190.746)">
            <path d="M0.247,0.223C0.23,0.223 0.214,0.222 0.198,0.219C0.182,0.216 0.167,0.212 0.152,0.205C0.137,0.198 0.124,0.189 0.112,0.178C0.099,0.167 0.089,0.155 0.081,0.141C0.072,0.127 0.066,0.112 0.062,0.096C0.057,0.081 0.055,0.065 0.054,0.049L0.191,0.049C0.191,0.056 0.192,0.064 0.195,0.071C0.197,0.079 0.201,0.086 0.205,0.091C0.211,0.097 0.217,0.101 0.224,0.104C0.231,0.107 0.239,0.109 0.247,0.109C0.257,0.109 0.267,0.106 0.276,0.099C0.284,0.093 0.291,0.085 0.296,0.076C0.301,0.067 0.304,0.057 0.305,0.046C0.306,0.036 0.307,0.026 0.307,0.015L0.307,-0.074C0.302,-0.063 0.296,-0.052 0.289,-0.041C0.282,-0.03 0.273,-0.021 0.263,-0.014C0.252,-0.006 0.241,-0 0.229,0.003C0.216,0.006 0.204,0.008 0.191,0.008C0.175,0.008 0.16,0.005 0.145,-0C0.13,-0.005 0.116,-0.014 0.105,-0.025C0.094,-0.035 0.084,-0.048 0.077,-0.062C0.069,-0.076 0.063,-0.091 0.059,-0.106C0.054,-0.121 0.051,-0.137 0.05,-0.153C0.049,-0.168 0.048,-0.184 0.048,-0.2L0.048,-0.32C0.048,-0.336 0.049,-0.352 0.05,-0.368C0.051,-0.383 0.054,-0.399 0.059,-0.414C0.063,-0.429 0.069,-0.444 0.077,-0.458C0.084,-0.472 0.094,-0.485 0.105,-0.496C0.116,-0.506 0.13,-0.515 0.145,-0.52C0.16,-0.525 0.175,-0.528 0.191,-0.528C0.204,-0.528 0.216,-0.526 0.229,-0.523C0.241,-0.52 0.252,-0.514 0.263,-0.506C0.273,-0.499 0.282,-0.49 0.289,-0.479C0.296,-0.468 0.302,-0.457 0.307,-0.446L0.307,-0.52L0.444,-0.52L0.444,0.015C0.444,0.033 0.443,0.051 0.44,0.069C0.437,0.087 0.431,0.104 0.424,0.121C0.417,0.138 0.407,0.153 0.395,0.166C0.382,0.179 0.368,0.19 0.352,0.199C0.336,0.208 0.319,0.215 0.301,0.218C0.283,0.221 0.265,0.223 0.247,0.223ZM0.249,-0.106C0.256,-0.106 0.262,-0.107 0.269,-0.11C0.276,-0.113 0.281,-0.117 0.286,-0.122C0.291,-0.127 0.294,-0.133 0.297,-0.14C0.3,-0.146 0.302,-0.152 0.304,-0.159C0.305,-0.166 0.306,-0.172 0.307,-0.18C0.307,-0.187 0.307,-0.193 0.307,-0.2L0.307,-0.32C0.307,-0.327 0.307,-0.334 0.307,-0.341C0.306,-0.347 0.305,-0.354 0.304,-0.361C0.302,-0.368 0.3,-0.374 0.297,-0.381C0.294,-0.387 0.291,-0.393 0.286,-0.398C0.281,-0.403 0.276,-0.407 0.269,-0.41C0.262,-0.413 0.256,-0.414 0.249,-0.414C0.238,-0.414 0.228,-0.411 0.219,-0.405C0.21,-0.399 0.203,-0.391 0.198,-0.382C0.193,-0.373 0.189,-0.363 0.188,-0.352C0.186,-0.341 0.185,-0.331 0.185,-0.32L0.185,-0.2C0.185,-0.189 0.186,-0.179 0.188,-0.168C0.189,-0.157 0.193,-0.147 0.198,-0.138C0.203,-0.129 0.21,-0.121 0.219,-0.115C0.228,-0.109 0.238,-0.106 0.249,-0.106Z" style="fill:rgb(235,179,169);fill-rule:nonzero;"/>
        </g>
        <g transform="matrix(220.644,0,0,220.644,754.229,190.746)">
            <path d="M0.125,0.215C0.132,0.188 0.14,0.162 0.147,0.135C0.154,0.108 0.16,0.081 0.167,0.054L0.182,-0.004L0.045,-0.52L0.185,-0.52L0.255,-0.169L0.315,-0.52L0.455,-0.52L0.265,0.215L0.125,0.215Z" style="fill:rgb(235,179,169);fill-rule:nonzero;"/>
        </g>
    </g>
</svg>
